<?xml version="1.0" standalone="no"?><!DOCTYPE svg PUBLIC "-//W3C//DTD SVG 1.1//EN" "http://www.w3.org/Graphics/SVG/1.1/DTD/svg11.dtd"><svg t="1607597349543" class="icon" viewBox="0 0 1024 1024" version="1.1" xmlns="http://www.w3.org/2000/svg" p-id="2430" xmlns:xlink="http://www.w3.org/1999/xlink" width="200" height="200"><defs><style type="text/css"></style></defs><path d="M818.655 971.545h-613.312c-84.303 0-152.886-66.343-152.886-147.89v-623.306c0-81.549 68.585-147.89 152.886-147.89h613.312c84.303 0 152.886 66.342 152.886 147.89v623.306c0 81.548-68.585 147.89-152.886 147.89zM205.345 123.155c-45.318 0-82.19 34.628-82.19 77.191v623.306c0 42.564 36.869 77.191 82.19 77.191h613.312c45.318 0 82.19-34.627 82.19-77.191v-623.306c0-42.563-36.869-77.191-82.19-77.191h-613.312z" fill="" p-id="2431"></path></svg>